 <svg version="1.0" xmlns="http://www.w3.org/2000/svg"
 width="512.000000pt" height="512.000000pt" viewBox="0 0 512.000000 512.000000"
 preserveAspectRatio="xMidYMid meet">
<g transform="translate(0.000000,512.000000) scale(0.100000,-0.100000)">
<path d="M2120 4470 c-358 -50 -652 -305 -755 -655 -38 -128 -44 -295 -17
-425 37 -180 123 -341 248 -466 36 -36 64 -67 62 -68 -2 -1 -32 -15 -67 -30
-323 -137 -626 -436 -782 -771 -109 -235 -172 -576 -140 -750 32 -175 168
-329 386 -437 331 -164 861 -248 1380 -219 602 34 1040 174 1246 398 61 67
114 172 130 258 32 171 -30 508 -136 741 -155 339 -460 642 -786 780 -35 15
-65 29 -67 30 -2 1 26 32 62 68 279 278 345 711 163 1060 -151 291 -436 474
-764 490 -54 3 -127 1 -163 -4z m322 -343 c278 -107 440 -389 383 -668 -25
-129 -74 -220 -165 -312 -118 -118 -259 -177 -420 -177 -158 0 -303 61 -416
174 -81 81 -115 136 -151 239 -35 99 -37 250 -6 352 62 199 221 353 424 410
87 24 266 15 351 -18z m11 -1492 c525 -91 937 -501 1031 -1025 23 -127 24
-246 2 -293 -71 -147 -375 -273 -806 -334 -179 -25 -701 -25 -880 0 -421 60
-710 177 -801 324 -20 31 -22 49 -21 127 12 581 457 1095 1040 1200 105 19
329 20 435 1z"/>
<path d="M3865 3665 c-84 -30 -105 -83 -105 -262 l0 -121 -142 -4 c-162 -4
-191 -13 -229 -75 -45 -73 -23 -170 51 -216 31 -19 52 -22 177 -25 l141 -4 4
-141 c3 -159 15 -194 80 -231 70 -42 167 -17 211 54 19 31 22 52 25 177 l4
141 141 4 c159 3 194 15 231 80 42 70 17 167 -54 211 -31 19 -52 22 -177 25
l-141 4 -4 141 c-2 120 -6 147 -23 175 -39 65 -119 93 -190 67z"/>
</g>
</svg>
